<svg width="251" height="50" viewBox="0 0 251 50" fill="none" xmlns="http://www.w3.org/2000/svg">
<path d="M26.4 0.252427C26.5588 0.315372 26.5588 0.315372 26.7207 0.37959C26.8371 0.426329 26.9534 0.473069 27.0733 0.521225C27.3363 0.625375 27.5993 0.729332 27.8625 0.832982C27.9349 0.861568 28.0074 0.890153 28.0821 0.919604C29.2872 1.39344 30.4999 1.84802 31.7111 2.30628C32.82 2.72592 33.928 3.14654 35.0281 3.58865C35.3961 3.73435 35.7661 3.87294 36.1374 4.01029C36.214 4.0386 36.2905 4.06691 36.3693 4.09607C36.4342 4.12001 36.499 4.14395 36.5658 4.16862C37.148 4.38467 37.7278 4.60677 38.3078 4.82855C38.4211 4.87177 38.5343 4.91499 38.651 4.95952C39.2722 5.19662 39.8932 5.43429 40.5138 5.67289C40.8429 5.79928 41.1722 5.92523 41.5014 6.0511C41.6632 6.11306 41.8249 6.1752 41.9865 6.23754C42.2135 6.32505 42.4407 6.4119 42.668 6.49861C42.7361 6.52507 42.8043 6.55153 42.8745 6.57879C43.1689 6.69045 43.3856 6.75964 43.7041 6.75964C43.7041 6.82877 43.7041 6.89789 43.7041 6.96911C43.7607 6.9845 43.8173 6.9999 43.8756 7.01575C44.5567 7.20917 45.2145 7.44742 45.8734 7.70417C46.1864 7.82413 46.4264 7.91175 46.7651 7.91175C46.7651 7.98088 46.7651 8.05 46.7651 8.12122C46.8586 8.14727 46.8586 8.14727 46.954 8.17385C47.6578 8.37588 48.3346 8.62393 49.0146 8.89366C49.2165 8.97308 49.4184 9.05245 49.6203 9.13177C49.7206 9.1713 49.821 9.21082 49.9244 9.25155C50.4883 9.47189 51.0543 9.68679 51.6204 9.90176C51.4838 11.5175 51.3274 13.1298 51.0854 14.7337C51.0539 14.9431 51.0239 15.1528 50.994 15.3624C50.7895 16.6651 50.3157 17.7233 49.6083 18.8306C49.5488 18.9248 49.4893 19.0189 49.428 19.1159C48.6554 20.3225 47.7801 21.4423 46.8595 22.5402C46.6861 22.7519 46.5255 22.9661 46.3692 23.1903C46.1358 23.5121 45.8929 23.7683 45.604 24.0413C45.2257 24.4067 44.8591 24.7758 44.5155 25.1738C44.0625 25.6938 43.5879 26.2019 43.0708 26.6597C43.0011 26.6597 42.9315 26.6597 42.8597 26.6597C42.8597 26.7288 42.8597 26.798 42.8597 26.8692C42.7269 27.0058 42.7269 27.0058 42.5298 27.1703C42.4517 27.2359 42.3736 27.3015 42.2932 27.3692C42.2015 27.4461 42.1098 27.5231 42.0153 27.6024C41.9127 27.6923 41.8101 27.7822 41.7044 27.8748C39.0793 30.1704 36.126 32.0478 33.0435 33.6771C32.949 33.7275 32.8545 33.7779 32.7571 33.8299C26.1517 37.3265 18.6363 38.999 11.1814 39.0318C11.1071 39.0323 11.0329 39.0328 10.9564 39.0333C9.75557 39.0295 9.75557 39.0295 9.41465 38.7565C9.33893 38.6497 9.33893 38.6497 9.26168 38.5409C9.20168 38.4571 9.14168 38.3734 9.07985 38.2872C8.72918 37.7531 8.38776 37.2138 8.0528 36.6699C7.92388 36.4617 7.79474 36.2662 7.64668 36.0705C7.46701 35.8325 7.33124 35.5825 7.19026 35.3202C7.00572 34.979 6.81976 34.6399 6.62292 34.3055C6.44481 33.9913 6.44481 33.9913 6.33926 33.6771C6.17741 33.3777 6.00907 33.0823 5.84078 32.7864C5.70595 32.525 5.70595 32.525 5.70595 32.3155C5.63629 32.281 5.56663 32.2464 5.49485 32.2108C5.4211 32.0025 5.35134 31.7927 5.28375 31.5824C5.18302 31.3673 5.07934 31.1536 4.9737 30.9409C4.07314 29.0666 3.36529 27.1025 2.73122 25.1258C2.69501 25.0139 2.6588 24.902 2.62149 24.7867C2.59019 24.688 2.55889 24.5893 2.52663 24.4876C2.44605 24.2347 2.44605 24.2347 2.22279 24.0413C2.19788 23.8455 2.17368 23.6497 2.15316 23.4534C2.08405 22.9724 1.92936 22.5108 1.79399 22.0447C1.39272 20.6231 1.09662 19.1847 0.806081 17.7376C0.788681 17.651 0.77128 17.5644 0.753352 17.4752C0.720589 17.3116 0.688064 17.148 0.655813 16.9843C0.59436 16.6755 0.528881 16.3803 0.428434 16.0813C0.428 15.8775 0.427864 15.6737 0.430393 15.4699C0.427337 15.1164 0.381861 14.7686 0.336078 14.4186C0.316809 14.2619 0.297569 14.1052 0.278355 13.9485C0.248172 13.707 0.217681 13.4655 0.186617 13.2241C0.0442573 12.1101 -0.0215201 11.0247 0.00623273 9.90176C1.89517 9.12953 3.79237 8.37914 5.69309 7.63602C5.87687 7.56415 6.06065 7.49227 6.24443 7.42038C6.38289 7.36622 6.38289 7.36622 6.52416 7.31097C7.24426 7.02892 7.96302 6.74362 8.68157 6.4577C9.93351 5.95978 11.189 5.47115 12.4451 4.98365C14.5836 4.15321 16.7181 3.31347 18.847 2.45886C19.0178 2.39027 19.0178 2.39027 19.1922 2.32029C20.2993 1.87563 21.4057 1.42933 22.5116 0.981496C22.6721 0.916521 22.8327 0.851546 22.9933 0.786572C23.2798 0.670669 23.566 0.554359 23.8522 0.437737C23.9747 0.388061 24.0972 0.338385 24.2234 0.287203C24.38 0.22346 24.38 0.22346 24.5397 0.158429C25.2285 -0.100885 25.716 -0.0223213 26.4 0.252427ZM24.9689 6.3996C24.8922 6.44245 24.8155 6.4853 24.7365 6.52945C24.5682 6.62384 24.4005 6.71929 24.2333 6.81564C23.9589 6.97327 23.6827 7.12723 23.4058 7.28046C22.2156 7.94062 21.0349 8.61721 19.8545 9.29445C18.9481 9.81435 18.0396 10.3303 17.1303 10.8451C16.2298 11.3549 15.3311 11.8677 14.4337 12.3827C13.4873 12.9256 12.5377 13.4622 11.5853 13.9944C10.6814 14.5003 9.78217 15.0143 8.88398 15.5303C8.40114 15.8076 7.91834 16.0847 7.43187 16.3558C7.36255 16.3945 7.29324 16.4332 7.22182 16.4731C7.04896 16.5693 6.87574 16.6649 6.7025 16.7604C6.41714 16.9227 6.41714 16.9227 6.12815 17.2334C7.80007 17.2334 9.47199 17.2334 11.1946 17.2334C11.1946 21.7957 11.1946 26.3581 11.1946 31.0587C14.6429 31.0587 18.0912 31.0587 21.6441 31.0587C21.6441 27.0493 21.6441 23.04 21.6441 18.9092C25.6671 18.961 25.6671 18.961 29.7714 19.0139C29.8698 19.3067 29.89 19.481 29.8897 19.7834C29.8899 19.9228 29.8899 19.9228 29.8901 20.0651C29.8897 20.1668 29.8894 20.2685 29.889 20.3733C29.889 20.4806 29.889 20.5879 29.889 20.6985C29.8889 21.0538 29.8881 21.4091 29.8873 21.7645C29.8871 22.0106 29.8869 22.2567 29.8868 22.5028C29.8864 23.1511 29.8854 23.7994 29.8842 24.4477C29.8832 25.109 29.8827 25.7703 29.8821 26.4316C29.881 27.7296 29.8792 29.0276 29.877 30.3255C30.4795 30.2439 30.4795 30.2439 31.0673 30.0952C31.1864 30.058 31.1864 30.058 31.3079 30.0202C31.3908 29.9935 31.4738 29.9668 31.5592 29.9393C31.6471 29.9113 31.735 29.8832 31.8255 29.8544C36.2863 28.5559 36.2863 28.5559 39.6932 25.8218C39.8498 25.3395 39.9338 24.8559 40.0098 24.3555C40.0423 24.1526 40.0423 24.1526 40.0754 23.9456C40.4058 21.69 40.3157 19.4008 39.5876 17.2334C41.573 17.2334 43.5584 17.2334 45.604 17.2334C45.3166 16.9482 45.1137 16.8105 44.7612 16.6266C44.1488 16.3027 43.5431 15.9683 42.9388 15.6296C42.8328 15.5701 42.7267 15.5107 42.6174 15.4494C41.9678 15.0841 41.3247 14.7103 40.687 14.3252C40.2019 14.034 39.7085 13.7599 39.2116 13.489C38.5025 13.102 37.8029 12.7014 37.1072 12.2911C35.319 11.2365 33.5136 10.2116 31.7063 9.18979C31.1551 8.87766 30.6075 8.56028 30.0617 8.23905C29.2965 7.79054 28.5259 7.3516 27.7528 6.91674C27.6401 6.85263 27.5274 6.78852 27.4113 6.72246C26.2216 6.01671 26.2216 6.01671 24.9689 6.3996Z" fill="white"/>
<path d="M50.6704 20.166C50.8097 20.166 50.9491 20.166 51.0926 20.166C51.0578 20.2351 51.023 20.3043 50.9871 20.3755C50.7201 21.0515 50.4998 21.7383 50.2812 22.431C49.6451 24.4182 48.9365 26.3478 48.0317 28.2308C47.986 28.3266 47.9403 28.4223 47.8933 28.521C46.8245 30.748 45.6041 32.9457 44.1263 34.934C44.0311 35.0647 43.936 35.1955 43.841 35.3263C42.6584 36.9483 41.3756 38.488 40.0098 39.9614C39.9538 40.0222 39.8978 40.0831 39.8401 40.1458C38.5444 41.5511 37.1913 42.8659 35.6823 44.0461C35.5699 44.1358 35.4576 44.2255 35.3454 44.3153C32.7304 46.3956 29.8749 48.2175 26.8688 49.6888C26.7988 49.7245 26.7287 49.7601 26.6566 49.7968C26.1687 50.0264 25.8563 50.0568 25.3383 49.9114C24.9798 49.7449 24.6423 49.5497 24.3026 49.3484C24.1551 49.2629 24.1551 49.2629 24.0046 49.1756C23.3399 48.7883 22.6809 48.3917 22.025 47.9899C21.1759 47.4709 20.3181 46.9666 19.4605 46.4616C19.3488 46.3958 19.3488 46.3958 19.2348 46.3286C19.0194 46.2017 18.804 46.0749 18.5885 45.9482C18.4924 45.8916 18.4924 45.8916 18.3944 45.8339C18.0182 45.6127 18.0182 45.6127 17.6374 45.3996C17.1159 45.1144 17.1159 45.1144 16.9998 44.884C16.8251 44.8113 16.649 44.742 16.4721 44.6745C16.301 44.5796 16.1321 44.4806 15.9654 44.3783C15.8709 44.3204 15.7764 44.2625 15.679 44.2028C15.5815 44.1425 15.484 44.0821 15.3836 44.0199C15.2873 43.9612 15.1911 43.9025 15.0919 43.842C14.5129 43.4853 13.9307 43.1245 13.4111 42.6845C13.4111 42.65 13.4111 42.6154 13.4111 42.5798C13.5268 42.5667 13.6424 42.5535 13.7615 42.54C16.0869 42.2745 18.3982 41.993 20.6941 41.5324C20.8101 41.5097 20.926 41.4869 21.0454 41.4634C28.3635 40.0094 35.1165 36.5619 40.7627 31.7462C40.9109 31.623 41.0614 31.5024 41.2129 31.3832C41.9551 30.7966 42.6293 30.1645 43.2952 29.4959C43.4673 29.3232 43.6403 29.1514 43.8134 28.9797C44.3968 28.3989 44.9648 27.8101 45.4985 27.1834C45.591 27.0777 45.6836 26.972 45.7763 26.8663C47.4643 24.9104 49.0614 22.8128 50.3707 20.5862C50.4791 20.4082 50.4791 20.4082 50.6704 20.166Z" fill="white"/>
<path d="M21.6441 18.9091C24.3261 18.9091 27.0081 18.9091 29.7714 18.9091C29.7714 18.9437 29.7714 18.9783 29.7714 19.0139C27.1242 19.0139 24.477 19.0139 21.7496 19.0139C21.8019 19.1694 21.8019 19.1694 21.8552 19.3281C21.8646 19.4902 21.868 19.6528 21.8679 19.8152C21.8681 19.9652 21.8681 19.9652 21.8683 20.1183C21.8677 20.2826 21.8677 20.2826 21.8672 20.4502C21.8672 20.5657 21.8672 20.6812 21.8672 20.8002C21.8671 21.1827 21.8663 21.5652 21.8655 21.9478C21.8653 22.2127 21.8651 22.4776 21.865 22.7425C21.8647 23.369 21.8638 23.9955 21.8628 24.622C21.8616 25.3352 21.861 26.0485 21.8605 26.7618C21.8594 28.229 21.8575 29.6962 21.8552 31.1634C21.4888 31.3452 21.0638 31.2761 20.6609 31.2704C20.5589 31.2694 20.457 31.2684 20.3519 31.2674C20.0138 31.2639 19.6757 31.2597 19.3376 31.2555C19.1036 31.2529 18.8697 31.2504 18.6357 31.248C18.019 31.2414 17.4023 31.2341 16.7856 31.2268C16.1566 31.2194 15.5277 31.2126 14.8987 31.2058C13.664 31.1922 12.4293 31.178 11.1946 31.1634C11.1946 31.1288 11.1946 31.0943 11.1946 31.0587C14.6429 31.0587 18.0912 31.0587 21.6441 31.0587C21.6092 29.9872 21.5744 28.9157 21.5385 27.8118C21.5306 27.0847 21.5231 26.3588 21.5248 25.6318C21.5253 25.3391 21.5248 25.0463 21.5241 24.7536C21.5254 22.8029 21.5909 20.8613 21.6441 18.9091Z" fill="white"/>
<path d="M6.02262 16.9192C6.09229 16.9537 6.16195 16.9883 6.23373 17.0239C6.19889 17.093 6.16406 17.1621 6.12818 17.2334C6.18806 17.2161 6.24794 17.1989 6.30964 17.1811C6.55898 17.1268 6.76981 17.1198 7.02463 17.1264C7.16406 17.1295 7.16406 17.1295 7.3063 17.1327C7.4057 17.1356 7.50511 17.1384 7.60753 17.1413C7.76126 17.145 7.76126 17.145 7.91809 17.1488C8.24504 17.1568 8.57195 17.1656 8.89887 17.1745C9.12069 17.18 9.34251 17.1856 9.56434 17.191C10.1078 17.2045 10.6512 17.2188 11.1946 17.2334C11.2934 17.8129 11.3156 18.3719 11.3142 18.9591C11.3143 19.0521 11.3144 19.1452 11.3145 19.241C11.3145 19.4366 11.3143 19.6322 11.3139 19.8278C11.3133 20.1265 11.3139 20.4253 11.3146 20.7241C11.3145 20.9147 11.3144 21.1054 11.3142 21.296C11.3144 21.385 11.3146 21.4739 11.3148 21.5655C11.3131 21.9857 11.3002 22.3744 11.1946 22.7844C11.01 22.4671 10.9575 22.2407 10.9595 21.8757C10.9595 21.7792 10.9596 21.6828 10.9596 21.5835C10.9607 21.4802 10.9618 21.377 10.9629 21.2707C10.9632 21.1643 10.9635 21.058 10.9638 20.9484C10.965 20.609 10.9676 20.2697 10.9703 19.9304C10.9714 19.7002 10.9723 19.4699 10.9732 19.2397C10.9755 18.6757 10.979 18.1116 10.9835 17.5476C10.885 17.5479 10.885 17.5479 10.7846 17.5483C10.1031 17.5506 9.42172 17.5522 8.74029 17.5533C8.48576 17.5539 8.23123 17.5546 7.9767 17.5555C7.61148 17.5568 7.24627 17.5573 6.88105 17.5578C6.7667 17.5584 6.65235 17.5589 6.53453 17.5594C6.42889 17.5595 6.32324 17.5595 6.2144 17.5595C6.12111 17.5597 6.02783 17.5599 5.93171 17.5602C5.70597 17.5476 5.70597 17.5476 5.49487 17.4428C5.60042 17.1286 5.60042 17.1286 5.80493 16.9977C5.87677 16.9718 5.94861 16.9459 6.02262 16.9192Z" fill="white"/>
<path d="M11.0891 24.6697C11.1239 24.6697 11.1587 24.6697 11.1946 24.6697C11.3118 25.8777 11.3164 27.0811 11.3139 28.2936C11.3133 28.6272 11.3139 28.9609 11.3146 29.2945C11.3145 29.5067 11.3144 29.7189 11.3142 29.9311C11.3144 30.0308 11.3146 30.1305 11.3148 30.2333C11.3145 30.325 11.3142 30.4167 11.3138 30.5112C11.3137 30.5919 11.3136 30.6726 11.3136 30.7557C11.3002 30.9539 11.3002 30.9539 11.1946 31.1634C14.6429 31.1634 18.0913 31.1634 21.6441 31.1634C21.6441 31.198 21.6441 31.2325 21.6441 31.2682C20.2697 31.2706 18.8953 31.2724 17.5209 31.2736C16.8828 31.2741 16.2447 31.2749 15.6066 31.2761C14.9914 31.2772 14.3761 31.2778 13.7609 31.2781C13.5256 31.2783 13.2903 31.2787 13.055 31.2792C12.7266 31.28 12.3983 31.2801 12.07 31.28C11.9716 31.2804 11.8733 31.2808 11.772 31.2812C11.1011 31.2801 11.1011 31.2801 10.9835 31.1634C10.9728 30.9527 10.9697 30.7415 10.9695 30.5305C10.9693 30.3955 10.9691 30.2606 10.9689 30.1216C10.9693 29.9735 10.9698 29.8255 10.9703 29.6775C10.9704 29.6034 10.9705 29.5294 10.9706 29.4531C10.973 27.8573 11.0234 26.2641 11.0891 24.6697Z" fill="white"/>
<path d="M48.3483 23.8318C48.3483 24.2061 48.2771 24.2738 48.0473 24.5597C47.9516 24.6801 47.9516 24.6801 47.854 24.8029C47.7525 24.9281 47.7525 24.9281 47.649 25.0559C47.5179 25.2199 47.3868 25.384 47.2557 25.5481C47.1912 25.6285 47.1268 25.7088 47.0604 25.7916C46.8259 26.0878 46.5994 26.3896 46.3749 26.6933C46.175 26.9488 45.9427 27.1674 45.7096 27.3929C45.6225 27.4966 45.5354 27.6003 45.4457 27.7071C45.1818 28.0213 45.1818 28.0213 44.9113 28.2832C44.6397 28.5596 44.4422 28.8496 44.2319 29.1734C44.1622 29.2425 44.0925 29.3117 44.0208 29.3829C43.9163 29.3483 43.8118 29.3138 43.7041 29.2782C43.9281 28.8468 44.2159 28.5503 44.5617 28.2165C44.8938 27.889 45.1945 27.5365 45.4985 27.1834C45.5831 27.0866 45.6677 26.9898 45.7549 26.8901C46.392 26.1565 46.9929 25.4012 47.5749 24.6237C47.6298 24.551 47.6848 24.4783 47.7414 24.4034C47.7898 24.3385 47.8383 24.2737 47.8882 24.2069C48.0317 24.0413 48.0317 24.0413 48.3483 23.8318Z" fill="white"/>
<path d="M50.6705 20.166C50.8098 20.166 50.9491 20.166 51.0927 20.166C51.0578 20.2351 51.023 20.3043 50.9871 20.3755C50.8193 20.7918 50.6706 21.2063 50.5472 21.6377C50.5251 21.713 50.503 21.7884 50.4803 21.8661C50.4358 22.0191 50.3929 22.1726 50.3514 22.3265C50.2882 22.5418 50.2882 22.5418 50.1427 22.8892C50.0034 22.9237 49.864 22.9583 49.7205 22.9939C49.8772 22.4236 49.8772 22.4236 50.0372 21.8418C49.863 21.9801 49.6888 22.1183 49.5094 22.2608C49.5094 21.6966 49.9427 21.2542 50.2483 20.7944C50.2906 20.7234 50.3329 20.6524 50.3765 20.5792C50.4791 20.4082 50.4791 20.4082 50.6705 20.166Z" fill="white"/>
<path d="M16.0499 38.5998C16.0499 38.6343 16.0499 38.6689 16.0499 38.7045C15.975 38.7108 15.9 38.7172 15.8228 38.7237C15.7257 38.7325 15.6287 38.7413 15.5288 38.7503C15.432 38.7588 15.3353 38.7673 15.2356 38.7761C14.9985 38.7841 14.9985 38.7841 14.8889 38.914C14.7096 38.9306 14.5296 38.9403 14.3496 38.9471C14.2378 38.9515 14.1261 38.9559 14.0109 38.9605C13.8914 38.9646 13.7718 38.9687 13.6487 38.9729C13.4675 38.9793 13.4675 38.9793 13.2827 38.9859C12.9385 38.9976 12.5943 39.0084 12.2501 39.0187C12.1708 39.0213 12.0914 39.0239 12.0097 39.0266C11.2192 39.0506 10.489 38.9812 9.71692 38.8092C9.71692 38.7747 9.71692 38.7401 9.71692 38.7045C10.3983 38.6894 11.0797 38.6745 11.7611 38.6598C11.9923 38.6547 12.2235 38.6496 12.4548 38.6445C14.9196 38.5899 14.9196 38.5899 16.0499 38.5998Z" fill="white"/>
<path d="M31.1436 8.64493C31.3526 8.71405 31.5616 8.78318 31.7769 8.8544C31.7769 8.92353 31.7769 8.99266 31.7769 9.06388C31.8522 9.0921 31.9275 9.12033 32.0051 9.14941C32.5377 9.36976 33.0301 9.66579 33.5317 9.9476C33.6978 10.0396 33.6978 10.0396 33.8673 10.1335C33.9734 10.193 34.0795 10.2525 34.1889 10.3138C34.2856 10.3678 34.3823 10.4219 34.4819 10.4776C34.7057 10.6182 34.8726 10.7548 35.049 10.9491C34.5727 10.8933 34.2434 10.7759 33.8331 10.5318C33.7251 10.4684 33.6171 10.4049 33.5059 10.3395C33.3947 10.2728 33.2834 10.2062 33.1688 10.1374C32.9483 10.007 32.7277 9.8766 32.5071 9.74631C32.3492 9.65264 32.3492 9.65264 32.1881 9.55708C31.7741 9.31463 31.3547 9.08256 30.9325 8.8544C31.0022 8.78528 31.0718 8.71615 31.1436 8.64493Z" fill="white"/>
<path d="M10.9835 22.3655C11.3521 23.097 11.3135 23.8031 11.3068 24.6042C11.3063 24.7113 11.3058 24.8184 11.3053 24.9287C11.3041 25.1915 11.3024 25.4543 11.3002 25.7171C11.2653 25.7171 11.2305 25.7171 11.1946 25.7171C11.1598 26.4083 11.125 27.0996 11.0891 27.8118C11.0542 27.8118 11.0194 27.8118 10.9835 27.8118C10.9835 26.0145 10.9835 24.2172 10.9835 22.3655Z" fill="white"/>
<path d="M10.9835 18.3855C11.0183 18.3855 11.0532 18.3855 11.089 18.3855C11.089 18.6966 11.089 19.0076 11.089 19.3281C11.1587 19.3627 11.2284 19.3973 11.3001 19.4329C11.3032 19.8933 11.3051 20.3537 11.3067 20.8141C11.3076 20.9446 11.3085 21.0751 11.3094 21.2095C11.3098 21.3354 11.3101 21.4613 11.3105 21.591C11.311 21.7068 11.3116 21.8225 11.3121 21.9417C11.3011 22.2354 11.2623 22.499 11.1946 22.7845C10.9134 22.3732 10.9568 21.9304 10.9629 21.454C10.9632 21.3662 10.9635 21.2785 10.9638 21.1881C10.965 20.9085 10.9676 20.6289 10.9703 20.3493C10.9714 20.1595 10.9723 19.9696 10.9732 19.7798C10.9755 19.315 10.9792 18.8503 10.9835 18.3855Z" fill="white"/>
<path d="M10.4558 14.5102C10.3171 14.9229 10.1604 14.9607 9.78124 15.1685C9.66491 15.2327 9.54858 15.2969 9.42872 15.363C9.36772 15.396 9.30671 15.4291 9.24386 15.4631C9.05892 15.5632 8.8748 15.6648 8.69069 15.7664C8.19572 16.0377 7.71365 16.302 7.18372 16.5002C7.32305 16.0854 7.48354 16.0488 7.86567 15.8419C7.98295 15.7777 8.10024 15.7135 8.22108 15.6474C8.34585 15.5803 8.47064 15.5133 8.59545 15.4463C8.71947 15.3789 8.84344 15.3115 8.96735 15.244C9.19513 15.1198 9.42317 14.9962 9.65152 14.8731C10.3056 14.5102 10.3056 14.5102 10.4558 14.5102Z" fill="white"/>
<path d="M48.3483 23.8318C48.3483 24.2076 48.2737 24.2788 48.0436 24.567C47.9472 24.6888 47.9472 24.6888 47.8488 24.8131C47.7807 24.8976 47.7126 24.982 47.6424 25.069C47.5434 25.1939 47.5434 25.1939 47.4423 25.3213C47.0825 25.7732 46.7167 26.2193 46.3429 26.6597C46.2641 26.4801 46.2641 26.4801 46.2373 26.2408C46.4051 26.0113 46.4051 26.0113 46.6529 25.7629C47.1018 25.2953 47.48 24.808 47.8494 24.277C48.0317 24.0413 48.0317 24.0413 48.3483 23.8318Z" fill="white"/>
<path d="M50.6705 20.166C50.8098 20.166 50.9491 20.166 51.0927 20.166C51.0579 20.2351 51.023 20.3043 50.9871 20.3755C50.7831 20.8948 50.6062 21.4087 50.4594 21.9465C50.2483 21.6323 50.2483 21.6323 50.2483 21.3181C50.1438 21.3527 50.0393 21.3873 49.9316 21.4229C50.0768 21.1294 50.2278 20.8414 50.3934 20.5588C50.4356 20.4848 50.4778 20.4108 50.5212 20.3346C50.5705 20.279 50.6197 20.2233 50.6705 20.166Z" fill="white"/>
<path d="M50.987 13.8818C51.0219 13.8818 51.0567 13.8818 51.0926 13.8818C51.0475 14.8968 50.9109 15.8268 50.6704 16.8144C50.4344 16.4631 50.4392 16.4252 50.5079 16.0342C50.5229 15.9454 50.5379 15.8567 50.5533 15.7652C50.5702 15.6729 50.587 15.5806 50.6044 15.4856C50.6205 15.3921 50.6365 15.2986 50.6531 15.2022C50.6929 14.9713 50.7339 14.7407 50.7759 14.5102C50.8456 14.5102 50.9153 14.5102 50.987 14.5102C50.987 14.3028 50.987 14.0954 50.987 13.8818Z" fill="white"/>
<path d="M44.7596 33.4677C44.8204 33.6621 44.8204 33.6621 44.8652 33.8866C44.7361 34.1272 44.7361 34.1272 44.5419 34.3841C44.4742 34.4751 44.4064 34.5661 44.3366 34.6599C44.2672 34.7503 44.1978 34.8408 44.1263 34.934C44.0634 35.018 44.0006 35.1019 43.9358 35.1885C43.7894 35.3838 43.6418 35.5782 43.493 35.7719C43.4582 35.6682 43.4233 35.5645 43.3875 35.4577C43.5014 35.2393 43.5014 35.2393 43.6773 34.9917C43.7707 34.8585 43.7707 34.8585 43.8659 34.7227C43.9654 34.5842 43.9654 34.5842 44.0669 34.443C44.1329 34.3495 44.1988 34.256 44.2667 34.1597C44.43 33.9283 44.5944 33.6977 44.7596 33.4677Z" fill="white"/>
<path d="M40.5376 14.0912C40.994 14.2572 41.4099 14.4806 41.8306 14.7197C41.8978 14.7569 41.965 14.7942 42.0343 14.8326C42.5303 15.1132 42.5303 15.1132 42.6486 15.3481C42.1591 15.2869 41.7761 15.079 41.3556 14.8375C41.2884 14.8006 41.2212 14.7638 41.1519 14.7258C40.6562 14.4443 40.6562 14.4443 40.5376 14.0912Z" fill="white"/>
<path d="M29.1381 1.52277C29.8157 1.58254 30.4063 1.80278 31.038 2.04645C31.038 2.11558 31.038 2.18471 31.038 2.25593C31.1773 2.32505 31.3166 2.39418 31.4602 2.4654C30.9701 2.38786 30.5241 2.22511 30.0616 2.053C29.9843 2.02525 29.9071 1.99751 29.8274 1.96892C29.2563 1.75745 29.2563 1.75745 29.1381 1.52277Z" fill="white"/>
<path d="M21.6441 37.6571C21.6441 37.7263 21.6441 37.7954 21.6441 37.8666C21.3386 37.9371 21.0329 38.0068 20.7271 38.0761C20.6409 38.0961 20.5547 38.116 20.4659 38.1366C20.0426 38.2319 19.6537 38.3138 19.2164 38.2856C19.3558 38.251 19.4951 38.2164 19.6386 38.1808C19.6386 38.1117 19.6386 38.0426 19.6386 37.9713C19.8936 37.9185 20.1487 37.8662 20.4039 37.8142C20.5118 37.7918 20.5118 37.7918 20.622 37.7688C20.9735 37.6977 21.2835 37.6571 21.6441 37.6571Z" fill="white"/>
<path d="M25.7605 5.81699C26.1621 5.79264 26.3897 5.8385 26.7323 6.0461C26.8512 6.11698 26.8512 6.11698 26.9725 6.1893C27.0536 6.23925 27.1348 6.28921 27.2184 6.34068C27.3016 6.39063 27.3848 6.44059 27.4705 6.49205C27.6752 6.61514 27.8792 6.73926 28.0826 6.86436C27.7336 6.97795 27.6783 6.97695 27.319 6.81895C27.1946 6.75028 27.0709 6.68027 26.9479 6.60906C26.8844 6.57362 26.8209 6.53818 26.7554 6.50167C26.599 6.41423 26.4435 6.32524 26.2882 6.23594C26.2882 6.16681 26.2882 6.09769 26.2882 6.02646C26.1141 5.9919 25.9399 5.95734 25.7605 5.92173C25.7605 5.88716 25.7605 5.8526 25.7605 5.81699Z" fill="white"/>
<path d="M20.5886 46.874C21.0783 47.0457 21.5004 47.3002 21.941 47.5679C22.0141 47.6119 22.0873 47.6559 22.1626 47.7013C22.3418 47.8092 22.5208 47.9176 22.6996 48.0261C22.46 48.108 22.3278 48.1492 22.0858 48.0612C22.0224 48.0232 21.9589 47.9851 21.8936 47.9459C21.824 47.9045 21.7544 47.863 21.6827 47.8203C21.6112 47.7759 21.5397 47.7315 21.466 47.6857C21.3933 47.6429 21.3206 47.6001 21.2456 47.556C20.7082 47.2299 20.7082 47.2299 20.5886 46.874Z" fill="white"/>
<path d="M37.8988 34.4103C37.3415 34.7905 36.7842 35.1707 36.21 35.5624C36.1403 35.5278 36.0707 35.4933 35.9989 35.4577C37.1353 34.2209 37.1353 34.2209 37.8988 34.4103Z" fill="white"/>
<path d="M28.6105 7.38806C29.1493 7.44606 29.5568 7.70499 30.0156 7.97066C30.0938 8.01515 30.1719 8.05964 30.2525 8.10547C30.4444 8.21481 30.6358 8.32503 30.827 8.43543C30.572 8.52668 30.4488 8.55727 30.1922 8.45758C30.1192 8.41382 30.0463 8.37006 29.9711 8.32497C29.8915 8.27785 29.8119 8.23073 29.7299 8.18218C29.6068 8.10664 29.6068 8.10664 29.4813 8.02958C29.3976 7.98003 29.3139 7.93048 29.2277 7.87943C28.7859 7.61456 28.7859 7.61456 28.6105 7.4928C28.6105 7.45824 28.6105 7.42367 28.6105 7.38806Z" fill="white"/>
<path d="M50.0371 9.37808C50.2021 9.42577 50.367 9.47386 50.5319 9.5221C50.6237 9.54883 50.7156 9.57556 50.8102 9.6031C51.0847 9.6898 51.3529 9.7956 51.6204 9.90177C51.5855 10.3511 51.5507 10.8004 51.5148 11.2634C51.48 11.2634 51.4452 11.2634 51.4093 11.2634C51.3744 10.8832 51.3396 10.503 51.3037 10.1112C51.0251 10.0076 50.7464 9.90386 50.4593 9.79703C50.4593 9.7279 50.4593 9.65878 50.4593 9.58756C50.32 9.58756 50.1807 9.58756 50.0371 9.58756C50.0371 9.51843 50.0371 9.4493 50.0371 9.37808Z" fill="white"/>
<path d="M43.5985 15.9765C44.1131 16.0317 44.4629 16.1837 44.9047 16.4478C45.0165 16.5137 45.1284 16.5796 45.2436 16.6475C45.3277 16.7026 45.4118 16.7577 45.4984 16.8144C45.4984 16.849 45.4984 16.8836 45.4984 16.9192C45.0484 16.9552 44.8092 16.8612 44.4297 16.6246C44.3402 16.5699 44.2507 16.5152 44.1584 16.4589C43.9455 16.3117 43.7735 16.1654 43.5985 15.9765Z" fill="white"/>
<path d="M47.8205 28.0213C47.8959 28.1833 47.8959 28.1833 47.926 28.4403C47.8148 28.7061 47.7002 28.9477 47.5632 29.1996C47.5275 29.2676 47.4918 29.3357 47.455 29.4058C47.3668 29.5733 47.2772 29.74 47.1872 29.9066C47.1175 29.9066 47.0478 29.9066 46.9761 29.9066C47.0801 29.5732 47.192 29.2688 47.3521 28.9574C47.5147 28.6607 47.5147 28.6607 47.5632 28.3552C47.5784 28.2795 47.5937 28.2039 47.6094 28.126C47.679 28.0915 47.7487 28.0569 47.8205 28.0213Z" fill="white"/>
<path d="M32.0936 46.6645C31.5711 47.0102 31.0486 47.3558 30.5103 47.7119C30.4406 47.6773 30.371 47.6428 30.2992 47.6072C30.5675 47.3062 30.8671 47.0722 31.1964 46.8413C31.2758 46.7855 31.3553 46.7297 31.4372 46.6723C31.6713 46.5598 31.6713 46.5598 32.0936 46.6645Z" fill="white"/>
<path d="M39.4821 26.0313C39.4821 26.45 39.3426 26.5659 39.0599 26.8692C38.8873 26.9793 38.7117 27.085 38.5321 27.1834C38.4624 27.2525 38.3928 27.3217 38.321 27.3929C38.1817 27.3238 38.0424 27.2546 37.8988 27.1834C37.9777 27.1354 38.0566 27.0873 38.1379 27.0378C38.2419 26.9735 38.3458 26.9092 38.4529 26.843C38.5558 26.7798 38.6587 26.7167 38.7646 26.6516C39.0384 26.4649 39.2566 26.2721 39.4821 26.0313Z" fill="white"/>
<path d="M46.8706 22.0513C46.9751 22.0859 47.0796 22.1204 47.1872 22.156C47.0191 22.3839 46.8496 22.6106 46.6793 22.8368C46.6316 22.9018 46.5839 22.9667 46.5347 23.0336C46.4079 23.2008 46.2704 23.3599 46.1317 23.5176C46.0272 23.5176 45.9227 23.5176 45.8151 23.5176C45.9801 23.1487 46.2051 22.8608 46.4616 22.5488C46.538 22.4554 46.6145 22.3619 46.6933 22.2657C46.781 22.1596 46.781 22.1596 46.8706 22.0513Z" fill="white"/>
<path d="M14.7833 12.1012C14.7833 12.1704 14.7833 12.2395 14.7833 12.3107C14.542 12.4536 14.3001 12.5952 14.0576 12.7362C13.9546 12.7975 13.9546 12.7975 13.8494 12.86C13.6718 12.9626 13.4889 13.0563 13.3056 13.1486C13.2359 13.114 13.1663 13.0795 13.0945 13.0439C13.3467 12.7697 13.6192 12.587 13.9389 12.3958C14.0303 12.3403 14.1218 12.2848 14.216 12.2276C14.4666 12.1012 14.4666 12.1012 14.7833 12.1012Z" fill="white"/>
<path d="M7.18372 34.934C7.25338 34.934 7.32304 34.934 7.39482 34.934C7.58077 35.2015 7.58077 35.2015 7.78403 35.5493C7.85193 35.6635 7.91982 35.7777 7.98977 35.8954C8.03726 35.9929 8.08474 36.0904 8.13367 36.1908C8.09884 36.2599 8.06401 36.3291 8.02812 36.4003C7.64051 36.0468 7.38537 35.7326 7.18372 35.2482C7.18372 35.1445 7.18372 35.0408 7.18372 34.934Z" fill="white"/>
<path d="M41.8042 30.8492C41.8739 30.8838 41.9435 30.9183 42.0153 30.9539C41.8973 31.0942 41.7784 31.2337 41.6591 31.3729C41.5599 31.4896 41.5599 31.4896 41.4587 31.6086C41.3685 31.6993 41.3685 31.6993 41.2765 31.7918C41.2068 31.7918 41.1371 31.7918 41.0653 31.7918C41.0653 31.861 41.0653 31.9301 41.0653 32.0013C40.8912 32.0359 40.717 32.0704 40.5376 32.1061C40.8988 31.6133 41.3376 31.2392 41.8042 30.8492Z" fill="white"/>
<path d="M32.7268 33.4677C32.7616 33.5713 32.7964 33.675 32.8323 33.7819C32.666 33.8729 32.4987 33.962 32.331 34.0503C32.2379 34.1001 32.1448 34.1499 32.0489 34.2012C31.7768 34.3055 31.7768 34.3055 31.3546 34.2008C31.8074 33.9589 32.2602 33.7169 32.7268 33.4677Z" fill="white"/>
<path d="M46.1318 26.4503C46.1666 26.5885 46.2015 26.7268 46.2373 26.8692C45.9999 27.1376 45.9999 27.1376 45.7096 27.3929C45.6465 27.4555 45.5833 27.5182 45.5183 27.5827C45.4769 27.6238 45.4356 27.6648 45.3929 27.7071C45.2885 27.6725 45.184 27.638 45.0763 27.6024C45.4246 27.2222 45.7729 26.842 46.1318 26.4503Z" fill="white"/>
<path d="M30.126 47.7451C30.2117 47.7805 30.2117 47.7805 30.2992 47.8167C30.0952 47.9397 29.8906 48.0617 29.6857 48.1832C29.5718 48.2513 29.4579 48.3193 29.3406 48.3894C29.0326 48.5498 29.0326 48.5498 28.7159 48.5498C28.7159 48.4807 28.7159 48.4116 28.7159 48.3403C28.8997 48.2319 29.0847 48.1253 29.2701 48.0196C29.4244 47.9303 29.4244 47.9303 29.5818 47.8392C29.877 47.7119 29.877 47.7119 30.126 47.7451Z" fill="white"/>
<path d="M22.3829 7.59753C22.4526 7.6321 22.5222 7.66666 22.594 7.70227C22.355 7.96068 22.1095 8.13183 21.8024 8.30451C21.6799 8.37499 21.6799 8.37499 21.555 8.44689C21.3274 8.54017 21.3274 8.54017 21.0107 8.43543C21.0833 8.3925 21.1558 8.34956 21.2305 8.30533C21.3256 8.24889 21.4207 8.19246 21.5187 8.13431C21.613 8.07842 21.7073 8.02252 21.8044 7.96493C22.0001 7.84693 22.1924 7.72355 22.3829 7.59753Z" fill="white"/>
<path d="M26.9216 49.283C27.026 49.3521 27.1305 49.4212 27.2382 49.4924C27.0519 49.5831 26.8648 49.6723 26.6775 49.7608C26.5213 49.8356 26.5213 49.8356 26.3621 49.9118C26.0771 50.0161 26.0771 50.0161 25.7605 49.9114C26.1381 49.6799 26.5228 49.4762 26.9216 49.283Z" fill="white"/>
<path d="M35.4712 35.9814C35.2827 36.1067 35.0935 36.2309 34.9038 36.3545C34.7459 36.4584 34.7459 36.4584 34.5847 36.5644C34.4941 36.6139 34.4035 36.6635 34.3101 36.7145C34.2404 36.68 34.1708 36.6454 34.099 36.6098C34.8645 35.7939 34.8645 35.7939 35.4712 35.9814Z" fill="white"/>
<path d="M28.1882 48.6545C28.2578 48.6891 28.3275 48.7237 28.3993 48.7593C28.1296 49.0715 27.8311 49.2331 27.4493 49.3877C27.218 49.3435 27.218 49.3435 27.0271 49.283C27.2156 49.175 27.4049 49.0683 27.5944 48.9622C27.6997 48.9027 27.8051 48.8431 27.9136 48.7818C28.0042 48.7398 28.0948 48.6978 28.1882 48.6545Z" fill="white"/>
<path d="M8.55591 37.3429C8.91185 37.4889 9.07363 37.6407 9.27497 37.9648C9.32137 38.037 9.36776 38.1093 9.41557 38.1837C9.50586 38.3903 9.50586 38.3903 9.40031 38.7045C9.25897 38.5173 9.11838 38.3295 8.97811 38.1415C8.89974 38.037 8.82137 37.9325 8.74062 37.8249C8.55591 37.5524 8.55591 37.5524 8.55591 37.3429Z" fill="white"/>
<path d="M14.9944 43.5224C15.4985 43.6944 15.9226 43.9692 16.3665 44.2556C16.1019 44.3524 15.9865 44.378 15.7221 44.267C15.6496 44.2201 15.5771 44.1731 15.5023 44.1247C15.429 44.0788 15.3557 44.0329 15.2801 43.9856C15.0999 43.8366 15.0999 43.8366 14.9944 43.5224Z" fill="white"/>
<path d="M13.6222 42.6845C13.9008 42.6845 14.1795 42.6845 14.4666 42.6845C14.3969 42.7536 14.3273 42.8228 14.2555 42.894C14.3948 43.0322 14.5341 43.1705 14.6777 43.3129C14.2617 43.254 13.9651 43.1371 13.6222 42.894C13.6222 42.8249 13.6222 42.7557 13.6222 42.6845Z" fill="white"/>
<path d="M48.876 19.4328C48.9109 19.5365 48.9457 19.6402 48.9816 19.747C48.8377 20.0068 48.8377 20.0068 48.6319 20.2904C48.5649 20.3847 48.4978 20.4791 48.4287 20.5763C48.3366 20.6843 48.3366 20.6843 48.2427 20.7944C48.1731 20.7944 48.1034 20.7944 48.0316 20.7944C48.1995 20.2614 48.5324 19.8649 48.876 19.4328Z" fill="white"/>
<path d="M1.69508 20.8992C1.87701 21.17 1.9534 21.3221 2.03153 21.6258C2.05044 21.6959 2.06935 21.7659 2.08884 21.8381C2.12074 22.0771 2.08431 22.2419 2.01174 22.4702C1.72863 21.9084 1.66181 21.5265 1.69508 20.8992Z" fill="white"/>
<path d="M16.3666 11.3681C16.1957 11.476 16.024 11.5827 15.852 11.6888C15.7565 11.7484 15.661 11.8079 15.5626 11.8693C15.4796 11.9112 15.3966 11.9532 15.3111 11.9965C15.2414 11.9619 15.1717 11.9274 15.1 11.8918C15.4769 11.4784 15.8035 11.1925 16.3666 11.3681Z" fill="white"/>
<path d="M42.2264 6.55017C42.6717 6.52961 42.9832 6.57087 43.3875 6.75964C43.3875 6.82877 43.3875 6.89789 43.3875 6.96912C43.4572 7.00368 43.5268 7.03824 43.5986 7.07385C42.5859 6.89134 42.5859 6.89134 42.2264 6.55017Z" fill="white"/>
<path d="M33.4657 3.09384C33.9521 3.16926 34.3811 3.33609 34.8379 3.51279C34.6729 3.63717 34.6729 3.63717 34.4157 3.72227C34.0198 3.57825 34.0198 3.57825 33.6768 3.40805C33.6768 3.33893 33.6768 3.2698 33.6768 3.19858C33.6071 3.16402 33.5375 3.12945 33.4657 3.09384Z" fill="white"/>
<path d="M24.5995 40.7993C24.3747 41.0223 24.2786 41.0586 23.9794 41.1331C23.9079 41.1519 23.8363 41.1706 23.7625 41.19C23.5199 41.2213 23.3535 41.1861 23.1218 41.1135C23.6464 40.8585 24.0028 40.763 24.5995 40.7993Z" fill="white"/>
<path d="M35.4712 32.3156C35.3003 32.4235 35.1286 32.5302 34.9566 32.6363C34.8611 32.6959 34.7656 32.7554 34.6672 32.8167C34.5842 32.8587 34.5012 32.9007 34.4157 32.944C34.346 32.9094 34.2764 32.8749 34.2046 32.8392C34.5815 32.4259 34.9081 32.14 35.4712 32.3156Z" fill="white"/>
<path d="M33.7823 29.2782C33.7475 29.3473 33.7126 29.4164 33.6768 29.4876C33.5723 29.4876 33.4678 29.4876 33.3601 29.4876C33.3601 29.5568 33.3601 29.6259 33.3601 29.6971C33.186 29.7317 33.0118 29.7662 32.8324 29.8018C32.7975 29.7327 32.7627 29.6636 32.7268 29.5924C32.7965 29.5924 32.8661 29.5924 32.9379 29.5924C32.9379 29.5232 32.9379 29.4541 32.9379 29.3829C33.247 29.2807 33.461 29.2695 33.7823 29.2782Z" fill="white"/>
<path d="M3.91162 27.9166C4.15646 28.2147 4.32494 28.4901 4.43937 28.8592C4.40454 28.9629 4.36971 29.0666 4.33382 29.1734C3.9604 28.7868 3.95477 28.4304 3.91162 27.9166Z" fill="white"/>
<path d="M35.7878 11.3681C36.2425 11.5321 36.6388 11.7539 37.0544 11.9965C36.8895 12.075 36.8895 12.075 36.6322 12.1012C36.3634 11.9941 36.1189 11.8632 35.8934 11.6823C35.8586 11.5786 35.8237 11.4749 35.7878 11.3681Z" fill="white"/>
<path d="M33.7823 10.216C34.237 10.38 34.6333 10.6018 35.049 10.8444C34.884 10.9229 34.884 10.9229 34.6268 10.9491C34.3579 10.842 34.1134 10.7111 33.8879 10.5302C33.8531 10.4265 33.8182 10.3228 33.7823 10.216Z" fill="white"/>
<path d="M20.7997 1.94171C20.7997 2.01084 20.7997 2.07996 20.7997 2.15118C20.5559 2.22031 20.312 2.28944 20.0608 2.36066C20.0608 2.29153 20.0608 2.22241 20.0608 2.15118C19.9912 2.11662 19.9215 2.08206 19.8497 2.04645C20.2114 1.87698 20.4177 1.80131 20.7997 1.94171Z" fill="white"/>
<path d="M42.9653 29.8018C43.0001 29.871 43.0349 29.9401 43.0708 30.0113C42.9396 30.4019 42.7784 30.5189 42.4375 30.7445C42.333 30.7099 42.2285 30.6754 42.1208 30.6397C42.3995 30.3632 42.6782 30.0867 42.9653 29.8018Z" fill="white"/>
<path d="M46.9762 25.6123C46.9762 25.9883 46.906 26.0427 46.6595 26.3128C46.6007 26.378 46.5419 26.4432 46.4814 26.5104C46.4357 26.5597 46.39 26.6089 46.3429 26.6597C46.308 26.5215 46.2732 26.3832 46.2373 26.2408C46.4811 26.0334 46.7249 25.826 46.9762 25.6123Z" fill="white"/>
<path d="M33.149 45.7219C33.0311 46.0728 32.9646 46.1192 32.6674 46.3176C32.5998 46.3634 32.5322 46.4091 32.4625 46.4563C32.4104 46.4904 32.3583 46.5246 32.3046 46.5598C32.2349 46.5252 32.1653 46.4907 32.0935 46.4551C32.8129 45.7219 32.8129 45.7219 33.149 45.7219Z" fill="white"/>
<path d="M4.54492 29.8018C4.86157 29.9066 4.86157 29.9066 4.98691 30.1422C5.07261 30.4301 5.08984 30.6559 5.07267 30.954C4.76019 30.6016 4.65861 30.2531 4.54492 29.8018Z" fill="white"/>
<path d="M1.06177 17.9665C1.29292 18.3106 1.31011 18.4725 1.33884 18.8764C1.34674 18.9805 1.35463 19.0846 1.36276 19.1919C1.37051 19.3112 1.37051 19.3112 1.37843 19.4328C1.08284 19.1033 1.02456 18.9021 1.04198 18.464C1.04484 18.3706 1.0477 18.2772 1.05064 18.1809C1.05432 18.1102 1.05799 18.0394 1.06177 17.9665Z" fill="white"/>
<path d="M50.776 15.4528C50.8108 15.4528 50.8456 15.4528 50.8815 15.4528C50.8695 15.6209 50.856 15.7889 50.842 15.9569C50.8346 16.0504 50.8273 16.144 50.8197 16.2404C50.776 16.5002 50.776 16.5002 50.5649 16.8144C50.4646 16.4275 50.4526 16.152 50.5649 15.767C50.6345 15.6633 50.7042 15.5597 50.776 15.4528Z" fill="white"/>
<path d="M39.482 5.39804C39.9273 5.44826 40.1994 5.52019 40.5375 5.81699C40.1777 5.93602 40.115 5.90785 39.7789 5.77117C39.7034 5.74106 39.6278 5.71095 39.55 5.67993C39.4928 5.65603 39.4355 5.63214 39.3765 5.60752C39.4113 5.53839 39.4461 5.46926 39.482 5.39804Z" fill="white"/>
<path d="M24.0718 49.0735C24.5733 49.1187 24.8022 49.2125 25.1273 49.5972C24.6791 49.5972 24.4533 49.4068 24.0718 49.1782C24.0718 49.1437 24.0718 49.1091 24.0718 49.0735Z" fill="white"/>
<path d="M23.2273 48.4451C23.6066 48.5849 23.9403 48.7551 24.2828 48.9688C24.1047 49.0408 24.1047 49.0408 23.8606 49.0735C23.5769 48.9426 23.5769 48.9426 23.3328 48.7593C23.298 48.6556 23.2632 48.5519 23.2273 48.4451Z" fill="white"/>
<path d="M20.7139 41.6175C20.809 41.6204 20.9041 41.6232 21.0021 41.6261C21.1109 41.6316 21.1109 41.6316 21.2219 41.6372C20.8881 41.858 20.7462 41.8821 20.3577 41.9121C20.215 41.9239 20.215 41.9239 20.0695 41.9358C19.9607 41.9435 19.9607 41.9435 19.8497 41.9514C20.1147 41.6186 20.2958 41.6014 20.7139 41.6175Z" fill="white"/>
<path d="M34.8379 28.8592C34.7682 28.9283 34.6986 28.9975 34.6268 29.0687C34.5571 29.0341 34.4875 28.9996 34.4157 28.9639C34.4157 29.0331 34.4157 29.1022 34.4157 29.1734C34.3112 29.208 34.2067 29.2425 34.099 29.2782C34.0294 29.2436 33.9597 29.209 33.8879 29.1734C33.8531 29.2425 33.8183 29.3117 33.7824 29.3829C33.7127 29.3138 33.6431 29.2446 33.5713 29.1734C33.7224 29.1002 33.8743 29.0285 34.0265 28.9574C34.1532 28.8973 34.1532 28.8973 34.2825 28.8359C34.5212 28.7545 34.5212 28.7545 34.8379 28.8592Z" fill="white"/>
<path d="M31.4668 8.7169C31.7769 8.85437 31.7769 8.85437 31.8693 9.07693C31.8758 9.17414 31.8758 9.17414 31.8824 9.27331C31.5173 9.14248 31.2336 8.99311 30.9325 8.74963C31.1436 8.64489 31.1436 8.64489 31.4668 8.7169Z" fill="white"/>
<path d="M19.0052 45.9314C19.3846 46.0712 19.7182 46.2414 20.0608 46.4551C19.8826 46.5271 19.8826 46.5271 19.6386 46.5598C19.3549 46.4289 19.3549 46.4289 19.1108 46.2456C19.076 46.1419 19.0411 46.0382 19.0052 45.9314Z" fill="white"/>
<path d="M43.7041 29.0687C43.7738 29.2069 43.8434 29.3452 43.9152 29.4876C43.6711 29.6513 43.6711 29.6513 43.3875 29.8018C43.283 29.7673 43.1785 29.7327 43.0708 29.6971C43.2798 29.4897 43.4888 29.2823 43.7041 29.0687Z" fill="white"/>
<path d="M50.3538 20.6897C50.4871 20.9541 50.4698 21.1413 50.466 21.436C50.465 21.5313 50.4641 21.6266 50.4631 21.7248C50.4619 21.798 50.4607 21.8712 50.4594 21.9465C50.2483 21.6323 50.2483 21.6323 50.2483 21.3181C50.1438 21.3527 50.0393 21.3872 49.9316 21.4229C50.0587 21.1617 50.1907 20.9325 50.3538 20.6897Z" fill="white"/>
<path d="M37.7932 12.5202C38.1726 12.66 38.5062 12.8302 38.8487 13.0439C38.6706 13.1159 38.6706 13.1159 38.4265 13.1486C38.1428 13.0177 38.1428 13.0177 37.8988 12.8344C37.8639 12.7307 37.8291 12.627 37.7932 12.5202Z" fill="white"/>
<path d="M36.8433 12.1012C37.3448 12.1465 37.5737 12.2403 37.8988 12.6249C37.4506 12.6249 37.2248 12.4346 36.8433 12.206C36.8433 12.1714 36.8433 12.1368 36.8433 12.1012Z" fill="white"/>
<path d="M34.8378 10.9491C35.3393 10.9944 35.5682 11.0882 35.8933 11.4728C35.4451 11.4728 35.2193 11.2825 34.8378 11.0539C34.8378 11.0193 34.8378 10.9847 34.8378 10.9491Z" fill="white"/>
<path d="M31.777 9.06387C32.1563 9.20369 32.49 9.37392 32.8325 9.58756C32.6544 9.65957 32.6544 9.65957 32.4103 9.6923C32.1266 9.56138 32.1266 9.56138 31.8825 9.37809C31.8477 9.2744 31.8129 9.17071 31.777 9.06387Z" fill="white"/>
<path d="M23.1217 0.999079C22.8355 1.18845 22.6052 1.32042 22.2773 1.41803C22.1728 1.3489 22.0684 1.27978 21.9607 1.20855C22.7448 0.834492 22.7448 0.834492 23.1217 0.999079Z" fill="white"/>
<path d="M8.13367 36.505C8.20333 36.505 8.27299 36.505 8.34477 36.505C8.68492 37.0574 8.68492 37.0574 8.76697 37.2382C8.73214 37.3073 8.69731 37.3764 8.66142 37.4477C8.44772 37.2453 8.30032 37.0673 8.13367 36.8192C8.13367 36.7156 8.13367 36.6119 8.13367 36.505Z" fill="white"/>
<path d="M36.5267 34.934C36.666 34.9685 36.8053 35.0031 36.9489 35.0387C36.705 35.2115 36.4612 35.3843 36.21 35.5624C36.1403 35.5278 36.0707 35.4933 35.9989 35.4576C36.2364 35.1893 36.2364 35.1893 36.5267 34.934Z" fill="white"/>
<path d="M31.988 29.9066C31.8138 29.9412 31.6397 29.9757 31.4602 30.0113C31.4602 30.0805 31.4602 30.1496 31.4602 30.2208C31.1881 30.3173 31.0809 30.3449 30.8121 30.2233C30.7473 30.1879 30.6826 30.1525 30.6158 30.1161C30.7848 30.0604 30.9542 30.0061 31.1238 29.9524C31.2181 29.922 31.3124 29.8917 31.4095 29.8604C31.6713 29.8019 31.6713 29.8019 31.988 29.9066Z" fill="white"/>
<path d="M48.3483 23.8318C48.3483 24.2916 48.1237 24.4361 47.8205 24.7745C47.7857 24.6708 47.7509 24.5671 47.715 24.4602C47.9261 24.2508 48.1372 24.0413 48.3483 23.8318Z" fill="white"/>
<path d="M48.8761 23.0987C48.8761 23.4129 48.8761 23.4129 48.6254 23.6878C48.3483 23.9366 48.3483 23.9366 48.1372 24.0413C48.3013 23.6415 48.5632 23.3928 48.8761 23.0987Z" fill="white"/>
<path d="M29.7715 7.91174C30.1508 8.05155 30.4845 8.22179 30.827 8.43543C30.6489 8.50744 30.6489 8.50744 30.4048 8.54017C30.1211 8.40925 30.1211 8.40925 29.877 8.22595C29.8422 8.12227 29.8074 8.01858 29.7715 7.91174Z" fill="white"/>
<path d="M26.2883 6.02649C25.9051 6.15322 25.5194 6.24499 25.1272 6.3407C25.2327 6.02649 25.2327 6.02649 25.4109 5.88902C25.7545 5.78765 25.964 5.89485 26.2883 6.02649Z" fill="white"/>
<path d="M48.3482 26.8692C48.3831 26.8692 48.4179 26.8692 48.4538 26.8692C48.3614 27.5762 48.3614 27.5762 48.2427 27.8118C48.1382 27.7773 48.0337 27.7427 47.926 27.7071C48.0654 27.4306 48.2047 27.1541 48.3482 26.8692Z" fill="white"/>
<path d="M1.3783 20.0613C1.41313 20.165 1.44796 20.2687 1.48385 20.3755C1.55351 20.3755 1.62317 20.3755 1.69495 20.3755C1.78041 20.6808 1.82356 20.8427 1.70154 21.1414C1.64603 21.2289 1.64603 21.2289 1.5894 21.3181C1.46932 20.8713 1.3783 20.5258 1.3783 20.0613Z" fill="white"/>
<path d="M12.7778 13.0439C12.8823 13.113 12.9868 13.1821 13.0945 13.2534C12.382 13.6723 12.382 13.6723 12.1445 13.6723C12.276 13.281 12.4226 13.2337 12.7778 13.0439Z" fill="white"/>
<path d="M4.96712 7.91174C5.14128 7.91174 5.31544 7.91174 5.49487 7.91174C5.49487 8.01543 5.49487 8.11912 5.49487 8.22595C5.28588 8.26052 5.0769 8.29508 4.86157 8.33069C4.8964 8.19244 4.93124 8.05419 4.96712 7.91174Z" fill="white"/>
<path d="M46.6595 7.91174C46.6943 7.98087 46.7291 8.05 46.765 8.12122C46.8347 8.12122 46.9043 8.12122 46.9761 8.12122C46.9413 8.22491 46.9065 8.3286 46.8706 8.43543C46.6267 8.33174 46.3829 8.22805 46.1317 8.12122C46.1317 8.08665 46.1317 8.05209 46.1317 8.01648C46.3059 7.98192 46.48 7.94735 46.6595 7.91174Z" fill="white"/>
<path d="M24.3883 6.75964C23.8455 7.22347 23.8455 7.22347 23.4384 7.28332C23.5439 6.96911 23.5439 6.96911 23.7946 6.78582C24.0717 6.6549 24.0717 6.6549 24.3883 6.75964Z" fill="white"/>
<path d="M11.4057 5.39804C11.4753 5.4326 11.545 5.46717 11.6168 5.50278C11.5471 5.64103 11.4775 5.77928 11.4057 5.92173C11.3012 5.92173 11.1967 5.92173 11.089 5.92173C11.089 5.8526 11.089 5.78347 11.089 5.71225C11.0194 5.67769 10.9497 5.64313 10.8779 5.60752C11.1286 5.49623 11.1286 5.49623 11.4057 5.39804Z" fill="white"/>
<path d="M25.2328 0.161192C25.1283 0.161192 25.0238 0.161192 24.9161 0.161192C24.9161 0.264882 24.9161 0.368572 24.9161 0.475404C24.7768 0.509967 24.6375 0.54453 24.4939 0.580141C24.4939 0.511014 24.4939 0.441888 24.4939 0.370666C24.4243 0.336103 24.3546 0.30154 24.2828 0.265929C24.6445 0.0964654 24.8508 0.0207876 25.2328 0.161192Z" fill="white"/>
<path d="M33.8879 32.8392C33.9924 32.9083 34.0969 32.9775 34.2046 33.0487C33.648 33.3862 33.648 33.3862 33.4657 33.4676C33.3961 33.4331 33.3264 33.3985 33.2546 33.3629C33.4586 33.1508 33.638 33.0046 33.8879 32.8392Z" fill="white"/>
<path d="M39.3765 29.4876C39.2319 29.8187 39.1666 29.9058 38.8488 30.1161C38.7443 30.0815 38.6398 30.0469 38.5321 30.0113C39.139 29.4876 39.139 29.4876 39.3765 29.4876Z" fill="white"/>
<path d="M3.17275 25.9266C3.45621 26.2079 3.49578 26.4897 3.59495 26.8692C3.49045 26.8346 3.38596 26.8001 3.2783 26.7645C3.13534 26.4808 3.16588 26.2398 3.17275 25.9266Z" fill="white"/>
<path d="M41.8042 14.8244C42.4111 14.9946 42.4111 14.9946 42.6486 15.3481C42.2621 15.2963 42.0501 15.2374 41.8042 14.9291C41.8042 14.8946 41.8042 14.86 41.8042 14.8244Z" fill="white"/>
<path d="M17.2109 10.5302C17.3154 10.5993 17.4199 10.6684 17.5276 10.7397C16.971 11.0772 16.971 11.0772 16.7887 11.1586C16.7191 11.124 16.6494 11.0895 16.5776 11.0539C16.7816 10.8418 16.961 10.6956 17.2109 10.5302Z" fill="white"/>
<path d="M23.1217 7.17859C23.2262 7.24772 23.3307 7.31684 23.4384 7.38806C22.8817 7.7256 22.8817 7.7256 22.6995 7.80701C22.6298 7.77245 22.5602 7.73789 22.4884 7.70228C22.6924 7.49023 22.8717 7.34396 23.1217 7.17859Z" fill="white"/>
<path d="M34.8378 3.61752C34.9941 3.64698 35.1502 3.67778 35.3061 3.70917C35.4366 3.73469 35.4366 3.73469 35.5696 3.76072C35.6416 3.78259 35.7136 3.80446 35.7877 3.827C35.8226 3.89612 35.8574 3.96525 35.8933 4.03647C35.5798 4.00191 35.2663 3.96735 34.9433 3.93173C34.9085 3.82805 34.8737 3.72436 34.8378 3.61752Z" fill="white"/>
<path d="M39.1654 33.0487C39.2351 33.0833 39.3047 33.1178 39.3765 33.1534C39.2372 33.3263 39.0979 33.4991 38.9543 33.6771C38.815 33.6426 38.6757 33.608 38.5321 33.5724C38.7411 33.3996 38.9501 33.2268 39.1654 33.0487Z" fill="white"/>
<path d="M36.3156 31.7918C35.7087 32.2108 35.7087 32.2108 35.4712 32.2108C35.5767 31.8966 35.5767 31.8966 35.7746 31.7656C35.9989 31.6871 35.9989 31.6871 36.3156 31.7918Z" fill="white"/>
<path d="M8.13367 16.0813C7.57706 16.4188 7.57706 16.4188 7.39482 16.5002C7.32515 16.4657 7.25549 16.4311 7.18372 16.3955C7.51769 16.049 7.65844 15.9398 8.13367 16.0813Z" fill="white"/>
<path d="M20.9053 8.43542C21.0098 8.50455 21.1143 8.57368 21.2219 8.6449C20.6653 8.98243 20.6653 8.98243 20.4831 9.06385C20.4134 9.02929 20.3437 8.99472 20.272 8.95911C20.476 8.74706 20.6553 8.6008 20.9053 8.43542Z" fill="white"/>
<path d="M0.00622559 12.7297C0.111776 13.1486 0.111776 13.1486 0.111776 13.1486L0.00622559 12.7297Z" fill="white"/>
<path d="M6.02258 33.3629C6.09225 33.432 6.16191 33.5012 6.23368 33.5724C6.16402 33.5724 6.09436 33.5724 6.02258 33.5724C6.02258 33.5033 6.02258 33.4341 6.02258 33.3629Z" fill="white"/>
<path d="M10.5613 16.9192C10.6309 16.9883 10.7006 17.0574 10.7724 17.1286C10.7027 17.1286 10.6331 17.1286 10.5613 17.1286C10.5613 17.0595 10.5613 16.9904 10.5613 16.9192Z" fill="white"/>
<path d="M39.3765 13.777C39.481 13.8289 39.481 13.8289 39.5876 13.8818C39.4831 13.9336 39.4831 13.9336 39.3765 13.9865C39.3765 13.9174 39.3765 13.8483 39.3765 13.777Z" fill="white"/>
<path d="M17.3165 41.9514C17.5276 42.0561 17.5276 42.0561 17.5276 42.0561L17.3165 41.9514Z" fill="white"/>
<path d="M22.6996 37.6571C22.9107 37.7619 22.9107 37.7619 22.9107 37.7619L22.6996 37.6571Z" fill="white"/>
<path d="M35.4712 32.6298C35.6823 32.7345 35.6823 32.7345 35.6823 32.7345L35.4712 32.6298Z" fill="white"/>
<path d="M32.0935 29.4876C32.3046 29.5924 32.3046 29.5924 32.3046 29.5924L32.0935 29.4876Z" fill="white"/>
<path d="M32.3047 29.3829C32.5158 29.4876 32.5158 29.4876 32.5158 29.4876L32.3047 29.3829Z" fill="white"/>
<path d="M46.6595 22.7845C46.8706 22.8892 46.8706 22.8892 46.8706 22.8892L46.6595 22.7845Z" fill="white"/>
<path d="M49.4038 21.5276C49.6149 21.6323 49.6149 21.6323 49.6149 21.6323L49.4038 21.5276Z" fill="white"/>
<path d="M10.9835 17.0239C11.1946 17.1286 11.1946 17.1286 11.1946 17.1286L10.9835 17.0239Z" fill="white"/>
<path d="M48.0316 8.43542C48.2427 8.54016 48.2427 8.54016 48.2427 8.54016L48.0316 8.43542Z" fill="white"/>
<path d="M68.6364 37H62.7216V19.5455H68.7557C70.4886 19.5455 71.9773 19.8949 73.2216 20.5938C74.4716 21.2869 75.4318 22.2841 76.1023 23.5852C76.7727 24.8864 77.108 26.4432 77.108 28.2557C77.108 30.0739 76.7699 31.6364 76.0938 32.9432C75.4233 34.25 74.4545 35.2528 73.1875 35.9517C71.9261 36.6506 70.4091 37 68.6364 37ZM65.8835 34.2642H68.483C69.6989 34.2642 70.7131 34.0426 71.5256 33.5994C72.3381 33.1506 72.9489 32.483 73.358 31.5966C73.767 30.7045 73.9716 29.5909 73.9716 28.2557C73.9716 26.9205 73.767 25.8125 73.358 24.9318C72.9489 24.0455 72.3438 23.3835 71.5426 22.946C70.7472 22.5028 69.7585 22.2812 68.5767 22.2812H65.8835V34.2642ZM79.9759 37V23.9091H83.0611V37H79.9759ZM81.527 22.0511C81.0384 22.0511 80.6179 21.8892 80.2656 21.5653C79.9134 21.2358 79.7372 20.8409 79.7372 20.3807C79.7372 19.9148 79.9134 19.5199 80.2656 19.196C80.6179 18.8665 81.0384 18.7017 81.527 18.7017C82.0213 18.7017 82.4418 18.8665 82.7884 19.196C83.1406 19.5199 83.3168 19.9148 83.3168 20.3807C83.3168 20.8409 83.1406 21.2358 82.7884 21.5653C82.4418 21.8892 82.0213 22.0511 81.527 22.0511ZM96.5803 27.3693L93.7678 27.6761C93.6882 27.392 93.549 27.125 93.3501 26.875C93.157 26.625 92.8956 26.4233 92.5661 26.2699C92.2365 26.1165 91.8331 26.0398 91.3558 26.0398C90.7138 26.0398 90.174 26.179 89.7365 26.4574C89.3047 26.7358 89.0916 27.0966 89.0973 27.5398C89.0916 27.9205 89.2308 28.2301 89.5149 28.4688C89.8047 28.7074 90.282 28.9034 90.9467 29.0568L93.1797 29.5341C94.4183 29.8011 95.3388 30.2244 95.9411 30.804C96.549 31.3835 96.8558 32.142 96.8615 33.0795C96.8558 33.9034 96.6143 34.6307 96.1371 35.2614C95.6655 35.8864 95.0092 36.375 94.1683 36.7273C93.3274 37.0795 92.3615 37.2557 91.2706 37.2557C89.6683 37.2557 88.3786 36.9205 87.4013 36.25C86.424 35.5739 85.8416 34.6335 85.6541 33.429L88.6626 33.1392C88.799 33.7301 89.0888 34.1761 89.532 34.4773C89.9751 34.7784 90.5518 34.929 91.2621 34.929C91.995 34.929 92.5831 34.7784 93.0263 34.4773C93.4751 34.1761 93.6996 33.804 93.6996 33.3608C93.6996 32.9858 93.5547 32.6761 93.2649 32.4318C92.9808 32.1875 92.5376 32 91.9354 31.8693L89.7024 31.4006C88.4467 31.1392 87.5178 30.6989 86.9155 30.0795C86.3132 29.4545 86.0149 28.6648 86.0206 27.7102C86.0149 26.9034 86.2337 26.2045 86.6768 25.6136C87.1257 25.017 87.7479 24.5568 88.5433 24.233C89.3445 23.9034 90.2678 23.7386 91.3132 23.7386C92.8473 23.7386 94.0547 24.0653 94.9354 24.7188C95.8217 25.3722 96.37 26.2557 96.5803 27.3693ZM99.4055 41.9091V23.9091H102.44V26.0739H102.619C102.778 25.7557 103.002 25.4176 103.292 25.0597C103.582 24.696 103.974 24.3864 104.468 24.1307C104.962 23.8693 105.593 23.7386 106.36 23.7386C107.371 23.7386 108.283 23.9972 109.096 24.5142C109.914 25.0256 110.562 25.7841 111.039 26.7898C111.522 27.7898 111.763 29.017 111.763 30.4716C111.763 31.9091 111.528 33.1307 111.056 34.1364C110.585 35.142 109.942 35.9091 109.13 36.4375C108.317 36.9659 107.397 37.2301 106.369 37.2301C105.619 37.2301 104.996 37.1051 104.502 36.8551C104.008 36.6051 103.61 36.304 103.309 35.9517C103.013 35.5937 102.783 35.2557 102.619 34.9375H102.491V41.9091H99.4055ZM102.431 30.4545C102.431 31.3011 102.55 32.0426 102.789 32.679C103.033 33.3153 103.383 33.8125 103.837 34.1705C104.298 34.5227 104.854 34.6989 105.508 34.6989C106.19 34.6989 106.761 34.517 107.221 34.1534C107.681 33.7841 108.028 33.2812 108.261 32.6449C108.499 32.0028 108.619 31.2727 108.619 30.4545C108.619 29.642 108.502 28.9205 108.269 28.2898C108.036 27.6591 107.69 27.1648 107.229 26.8068C106.769 26.4489 106.195 26.2699 105.508 26.2699C104.849 26.2699 104.289 26.4432 103.829 26.7898C103.369 27.1364 103.019 27.6222 102.781 28.2472C102.548 28.8722 102.431 29.608 102.431 30.4545ZM122.749 31.4943V23.9091H125.835V37H122.843V34.6733H122.707C122.411 35.4062 121.925 36.0057 121.249 36.4716C120.579 36.9375 119.752 37.1705 118.769 37.1705C117.911 37.1705 117.153 36.9801 116.494 36.5994C115.84 36.2131 115.329 35.6534 114.96 34.9205C114.59 34.1818 114.406 33.2898 114.406 32.2443V23.9091H117.491V31.767C117.491 32.5966 117.718 33.2557 118.173 33.7443C118.627 34.233 119.224 34.4773 119.962 34.4773C120.417 34.4773 120.857 34.3665 121.283 34.1449C121.71 33.9233 122.059 33.5938 122.332 33.1562C122.61 32.7131 122.749 32.1591 122.749 31.4943ZM135.544 23.9091V26.2955H128.018V23.9091H135.544ZM129.876 20.7727H132.962V33.0625C132.962 33.4773 133.024 33.7955 133.149 34.017C133.28 34.233 133.45 34.3807 133.661 34.4602C133.871 34.5398 134.104 34.5795 134.359 34.5795C134.553 34.5795 134.729 34.5653 134.888 34.5369C135.053 34.5085 135.178 34.483 135.263 34.4602L135.783 36.8722C135.618 36.929 135.382 36.9915 135.075 37.0597C134.774 37.1278 134.405 37.1676 133.967 37.179C133.195 37.2017 132.499 37.0852 131.879 36.8295C131.26 36.5682 130.768 36.1648 130.405 35.6193C130.047 35.0739 129.871 34.392 129.876 33.5739V20.7727ZM143.779 37.2557C142.467 37.2557 141.333 36.983 140.379 36.4375C139.43 35.8864 138.7 35.108 138.188 34.1023C137.677 33.0909 137.421 31.9006 137.421 30.5312C137.421 29.1847 137.677 28.0028 138.188 26.9858C138.705 25.9631 139.427 25.1676 140.353 24.5994C141.279 24.0256 142.367 23.7386 143.617 23.7386C144.424 23.7386 145.185 23.8693 145.901 24.1307C146.623 24.3864 147.259 24.7841 147.81 25.3239C148.367 25.8636 148.805 26.5511 149.123 27.3864C149.441 28.2159 149.6 29.2045 149.6 30.3523V31.2983H138.87V29.2188H146.643C146.637 28.6278 146.509 28.1023 146.259 27.642C146.009 27.1761 145.66 26.8097 145.211 26.5426C144.768 26.2756 144.251 26.142 143.66 26.142C143.029 26.142 142.475 26.2955 141.998 26.6023C141.521 26.9034 141.148 27.3011 140.881 27.7955C140.62 28.2841 140.487 28.821 140.481 29.4062V31.2216C140.481 31.983 140.62 32.6364 140.898 33.1818C141.177 33.7216 141.566 34.1364 142.066 34.4261C142.566 34.7102 143.151 34.8523 143.822 34.8523C144.271 34.8523 144.677 34.7898 145.04 34.6648C145.404 34.5341 145.719 34.3438 145.987 34.0938C146.254 33.8438 146.455 33.5341 146.592 33.1648L149.472 33.4886C149.29 34.25 148.944 34.9148 148.433 35.483C147.927 36.0455 147.279 36.483 146.489 36.7955C145.7 37.1023 144.796 37.2557 143.779 37.2557ZM158.3 19.5455H162.169L167.351 32.1932H167.555L172.737 19.5455H176.607V37H173.572V25.0085H173.411L168.587 36.9489H166.32L161.496 24.983H161.334V37H158.3V19.5455ZM181.831 41.9091C181.411 41.9091 181.021 41.875 180.663 41.8068C180.311 41.7443 180.03 41.6705 179.82 41.5852L180.536 39.1818C180.984 39.3125 181.385 39.375 181.737 39.3693C182.089 39.3636 182.399 39.2528 182.666 39.0369C182.939 38.8267 183.169 38.4744 183.357 37.9801L183.621 37.2727L178.874 23.9091H182.146L185.163 33.7955H185.3L188.325 23.9091H191.607L186.365 38.5852C186.121 39.2784 185.797 39.8722 185.393 40.3665C184.99 40.8665 184.496 41.2472 183.911 41.5085C183.331 41.7756 182.638 41.9091 181.831 41.9091ZM199.831 37V19.5455H202.993V26.9347H211.081V19.5455H214.251V37H211.081V29.5852H202.993V37H199.831ZM233.287 28.2727C233.287 30.1534 232.935 31.7642 232.23 33.1051C231.531 34.4403 230.577 35.4631 229.366 36.1733C228.162 36.8835 226.795 37.2386 225.267 37.2386C223.739 37.2386 222.369 36.8835 221.159 36.1733C219.955 35.4574 219 34.4318 218.295 33.0966C217.597 31.7557 217.247 30.1477 217.247 28.2727C217.247 26.392 217.597 24.7841 218.295 23.4489C219 22.108 219.955 21.0824 221.159 20.3722C222.369 19.6619 223.739 19.3068 225.267 19.3068C226.795 19.3068 228.162 19.6619 229.366 20.3722C230.577 21.0824 231.531 22.108 232.23 23.4489C232.935 24.7841 233.287 26.392 233.287 28.2727ZM230.108 28.2727C230.108 26.9489 229.901 25.8324 229.486 24.9233C229.077 24.0085 228.509 23.3182 227.781 22.8523C227.054 22.3807 226.216 22.1449 225.267 22.1449C224.318 22.1449 223.48 22.3807 222.753 22.8523C222.026 23.3182 221.455 24.0085 221.04 24.9233C220.631 25.8324 220.426 26.9489 220.426 28.2727C220.426 29.5966 220.631 30.7159 221.04 31.6307C221.455 32.5398 222.026 33.2301 222.753 33.7017C223.48 34.1676 224.318 34.4006 225.267 34.4006C226.216 34.4006 227.054 34.1676 227.781 33.7017C228.509 33.2301 229.077 32.5398 229.486 31.6307C229.901 30.7159 230.108 29.5966 230.108 28.2727ZM237.58 37H234.205L240.35 19.5455H244.254L250.407 37H247.032L242.37 23.125H242.234L237.58 37ZM237.691 30.1562H246.896V32.696H237.691V30.1562Z" fill="white"/>
</svg>
